<?xml version="1.0" encoding="UTF-8" standalone="no"?>
<!-- Created with Inkscape (http://www.inkscape.org/) -->

<svg
   xmlns:dc="http://purl.org/dc/elements/1.1/"
   xmlns:cc="http://creativecommons.org/ns#"
   xmlns:rdf="http://www.w3.org/1999/02/22-rdf-syntax-ns#"
   xmlns:svg="http://www.w3.org/2000/svg"
   xmlns="http://www.w3.org/2000/svg"
   xmlns:sodipodi="http://sodipodi.sourceforge.net/DTD/sodipodi-0.dtd"
   xmlns:inkscape="http://www.inkscape.org/namespaces/inkscape"
   width="4503.6719"
   height="2450"
   id="svg2"
   version="1.1"
   inkscape:version="0.48.5 r10040"
   sodipodi:docname="bitree-boundary.svg">
  <defs
     id="defs4" />
  <sodipodi:namedview
     id="base"
     pagecolor="#ffffff"
     bordercolor="#666666"
     borderopacity="1.0"
     inkscape:pageopacity="0.0"
     inkscape:pageshadow="2"
     inkscape:zoom="0.20857143"
     inkscape:cx="2251.8359"
     inkscape:cy="1416.7808"
     inkscape:document-units="px"
     inkscape:current-layer="layer1"
     showgrid="false"
     showborder="true"
     inkscape:showpageshadow="false"
     inkscape:window-width="1920"
     inkscape:window-height="1027"
     inkscape:window-x="0"
     inkscape:window-y="31"
     inkscape:window-maximized="1"
     fit-margin-top="0"
     fit-margin-left="0"
     fit-margin-right="0"
     fit-margin-bottom="0">
    <inkscape:grid
       type="xygrid"
       id="grid2985"
       empspacing="5"
       visible="true"
       enabled="true"
       snapvisiblegridlinesonly="true"
       originx="885px"
       originy="965.00002px" />
  </sodipodi:namedview>
  <metadata
     id="metadata7">
    <rdf:RDF>
      <cc:Work
         rdf:about="">
        <dc:format>image/svg+xml</dc:format>
        <dc:type
           rdf:resource="http://purl.org/dc/dcmitype/StillImage" />
        <dc:title />
      </cc:Work>
    </rdf:RDF>
  </metadata>
  <g
     inkscape:label="Layer 1"
     inkscape:groupmode="layer"
     id="layer1"
     transform="translate(885,432.63782)">
    <path
       style="fill:none;stroke:#000000;stroke-width:1px;stroke-linecap:butt;stroke-linejoin:miter;stroke-opacity:1"
       d="m -40,572.36218 480,-960 320,640"
       id="path3161"
       inkscape:connector-curvature="0"
       sodipodi:nodetypes="ccc" />
    <path
       sodipodi:type="arc"
       style="fill:#0000ff;fill-opacity:1;stroke:#0000ff;stroke-width:5;stroke-linejoin:miter;stroke-miterlimit:4;stroke-opacity:1;stroke-dasharray:none;stroke-dashoffset:0"
       id="path2989"
       sodipodi:cx="-40"
       sodipodi:cy="532.36218"
       sodipodi:rx="40"
       sodipodi:ry="40"
       d="m 0,532.36218 c 0,22.09139 -17.90861,40 -40,40 -22.09139,0 -40,-17.90861 -40,-40 0,-22.09139 17.90861,-40 40,-40 22.09139,0 40,17.90861 40,40 z"
       transform="translate(0,40)" />
    <path
       style="fill:none;stroke:#000000;stroke-width:1px;stroke-linecap:butt;stroke-linejoin:miter;stroke-opacity:1"
       d="m 120,252.36218 160,320"
       id="path3181"
       inkscape:connector-curvature="0" />
    <path
       transform="translate(320,40)"
       sodipodi:type="arc"
       style="fill:#0000ff;fill-opacity:1;stroke:#0000ff;stroke-width:5;stroke-linejoin:miter;stroke-miterlimit:4;stroke-opacity:1;stroke-dasharray:none;stroke-dashoffset:0"
       id="path2989-7"
       sodipodi:cx="-40"
       sodipodi:cy="532.36218"
       sodipodi:rx="40"
       sodipodi:ry="40"
       d="m 0,532.36218 c 0,22.09139 -17.90861,40 -40,40 -22.09139,0 -40,-17.90861 -40,-40 0,-22.09139 17.90861,-40 40,-40 22.09139,0 40,17.90861 40,40 z"
       inkscape:transform-center-x="80" />
    <path
       transform="translate(640,40)"
       sodipodi:type="arc"
       style="fill:#00ff00;fill-opacity:1;stroke:#0000ff;stroke-width:10;stroke-linejoin:miter;stroke-miterlimit:4;stroke-opacity:1;stroke-dasharray:none;stroke-dashoffset:0"
       id="path2989-7-9"
       sodipodi:cx="-40"
       sodipodi:cy="532.36218"
       sodipodi:rx="40"
       sodipodi:ry="40"
       d="m 0,532.36218 c 0,22.09139 -17.90861,40 -40,40 -22.09139,0 -40,-17.90861 -40,-40 0,-22.09139 17.90861,-40 40,-40 22.09139,0 40,17.90861 40,40 z"
       inkscape:transform-center-x="80" />
    <path
       transform="translate(160,-280)"
       sodipodi:type="arc"
       style="fill:#ff00ff;fill-opacity:1;stroke:#0000ff;stroke-width:10;stroke-linejoin:miter;stroke-miterlimit:4;stroke-opacity:1;stroke-dasharray:none;stroke-dashoffset:0"
       id="path2989-8"
       sodipodi:cx="-40"
       sodipodi:cy="532.36218"
       sodipodi:rx="40"
       sodipodi:ry="40"
       d="m 0,532.36218 c 0,22.09139 -17.90861,40 -40,40 -22.09139,0 -40,-17.90861 -40,-40 0,-22.09139 17.90861,-40 40,-40 22.09139,0 40,17.90861 40,40 z" />
    <path
       style="fill:none;stroke:#000000;stroke-width:1px;stroke-linecap:butt;stroke-linejoin:miter;stroke-opacity:1"
       d="m 600,572.36218 160,-320"
       id="path3183"
       inkscape:connector-curvature="0" />
    <path
       transform="translate(800,-280)"
       sodipodi:type="arc"
       style="fill:#0000ff;fill-opacity:1;stroke:#0000ff;stroke-width:10;stroke-linejoin:miter;stroke-miterlimit:4;stroke-opacity:1;stroke-dasharray:none;stroke-dashoffset:0"
       id="path2989-0"
       sodipodi:cx="-40"
       sodipodi:cy="532.36218"
       sodipodi:rx="40"
       sodipodi:ry="40"
       d="m 0,532.36218 c 0,22.09139 -17.90861,40 -40,40 -22.09139,0 -40,-17.90861 -40,-40 0,-22.09139 17.90861,-40 40,-40 22.09139,0 40,17.90861 40,40 z" />
    <path
       transform="translate(480,-920)"
       sodipodi:type="arc"
       style="fill:none;stroke:#0000ff;stroke-width:10;stroke-linejoin:miter;stroke-miterlimit:4;stroke-opacity:1;stroke-dasharray:none;stroke-dashoffset:0"
       id="path2989-5"
       sodipodi:cx="-40"
       sodipodi:cy="532.36218"
       sodipodi:rx="40"
       sodipodi:ry="40"
       d="m 0,532.36218 c 0,22.09139 -17.90861,40 -40,40 -22.09139,0 -40,-17.90861 -40,-40 0,-22.09139 17.90861,-40 40,-40 22.09139,0 40,17.90861 40,40 z" />
    <path
       style="fill:none;stroke:#000000;stroke-width:10;stroke-linecap:butt;stroke-linejoin:miter;stroke-miterlimit:4;stroke-opacity:1;stroke-dasharray:none"
       d="m -199.36603,612.36218 -0.63397,-1040"
       id="path3185"
       inkscape:connector-curvature="0"
       sodipodi:nodetypes="cc" />
    <path
       style="fill:none;stroke:#000000;stroke-width:10;stroke-linecap:butt;stroke-linejoin:miter;stroke-miterlimit:4;stroke-opacity:1;stroke-dasharray:none"
       d="m 1080,612.36218 0,-1040"
       id="path3185-0"
       inkscape:connector-curvature="0"
       sodipodi:nodetypes="cc" />
    <path
       style="fill:none;stroke:#000000;stroke-width:1px;stroke-linecap:butt;stroke-linejoin:miter;stroke-opacity:1"
       d="m 1400,252.36218 320,-640"
       id="path3161-6"
       inkscape:connector-curvature="0"
       sodipodi:nodetypes="cc" />
    <path
       transform="translate(1440,-280)"
       sodipodi:type="arc"
       style="fill:#ff0000;fill-opacity:1;stroke:#0000ff;stroke-width:10;stroke-linejoin:miter;stroke-miterlimit:4;stroke-opacity:1;stroke-dasharray:none;stroke-dashoffset:0"
       id="path2989-8-2"
       sodipodi:cx="-40"
       sodipodi:cy="532.36218"
       sodipodi:rx="40"
       sodipodi:ry="40"
       d="m 0,532.36218 c 0,22.09139 -17.90861,40 -40,40 -22.09139,0 -40,-17.90861 -40,-40 0,-22.09139 17.90861,-40 40,-40 22.09139,0 40,17.90861 40,40 z" />
    <path
       transform="translate(1760,-920)"
       sodipodi:type="arc"
       style="fill:none;stroke:#0000ff;stroke-width:10;stroke-linejoin:miter;stroke-miterlimit:4;stroke-opacity:1;stroke-dasharray:none;stroke-dashoffset:0"
       id="path2989-5-1"
       sodipodi:cx="-40"
       sodipodi:cy="532.36218"
       sodipodi:rx="40"
       sodipodi:ry="40"
       d="m 0,532.36218 c 0,22.09139 -17.90861,40 -40,40 -22.09139,0 -40,-17.90861 -40,-40 0,-22.09139 17.90861,-40 40,-40 22.09139,0 40,17.90861 40,40 z" />
    <path
       style="fill:none;stroke:#000000;stroke-width:1px;stroke-linecap:butt;stroke-linejoin:miter;stroke-opacity:1"
       d="M -840,-387.63782 -360,572.3622"
       id="path3161-8"
       inkscape:connector-curvature="0"
       sodipodi:nodetypes="cc" />
    <path
       transform="translate(-320,40)"
       sodipodi:type="arc"
       style="fill:#ff0000;fill-opacity:1;stroke:#0000ff;stroke-width:10;stroke-linejoin:miter;stroke-miterlimit:4;stroke-opacity:1;stroke-dasharray:none;stroke-dashoffset:0"
       id="path2989-7-97-0"
       sodipodi:cx="-40"
       sodipodi:cy="532.36218"
       sodipodi:rx="40"
       sodipodi:ry="40"
       d="m 0,532.36218 c 0,22.09139 -17.90861,40 -40,40 -22.09139,0 -40,-17.90861 -40,-40 0,-22.09139 17.90861,-40 40,-40 22.09139,0 40,17.90861 40,40 z"
       inkscape:transform-center-x="80" />
    <path
       transform="translate(-480,-280)"
       sodipodi:type="arc"
       style="fill:#ff0000;stroke:#0000ff;stroke-width:10;stroke-linejoin:miter;stroke-miterlimit:4;stroke-opacity:1;stroke-dasharray:none;stroke-dashoffset:0"
       id="path2989-0-2"
       sodipodi:cx="-40"
       sodipodi:cy="532.36218"
       sodipodi:rx="40"
       sodipodi:ry="40"
       d="m 0,532.36218 c 0,22.09139 -17.90861,40 -40,40 -22.09139,0 -40,-17.90861 -40,-40 0,-22.09139 17.90861,-40 40,-40 22.09139,0 40,17.90861 40,40 z" />
    <path
       transform="translate(-800,-920)"
       sodipodi:type="arc"
       style="fill:none;stroke:#0000ff;stroke-width:10;stroke-linejoin:miter;stroke-miterlimit:4;stroke-opacity:1;stroke-dasharray:none;stroke-dashoffset:0"
       id="path2989-5-19"
       sodipodi:cx="-40"
       sodipodi:cy="532.36218"
       sodipodi:rx="40"
       sodipodi:ry="40"
       d="m 0,532.36218 c 0,22.09139 -17.90861,40 -40,40 -22.09139,0 -40,-17.90861 -40,-40 0,-22.09139 17.90861,-40 40,-40 22.09139,0 40,17.90861 40,40 z" />
    <text
       xml:space="preserve"
       style="font-size:150px;font-style:normal;font-weight:normal;line-height:125%;letter-spacing:0px;word-spacing:0px;fill:#000000;fill-opacity:1;stroke:none;font-family:Bitstream Vera Sans"
       x="2080"
       y="12.362183"
       id="text4175"
       sodipodi:linespacing="125%"><tspan
         sodipodi:role="line"
         id="tspan4177"
         x="2080"
         y="12.362183">boundary</tspan></text>
    <text
       xml:space="preserve"
       style="font-size:150px;font-style:normal;font-weight:normal;line-height:125%;letter-spacing:0px;word-spacing:0px;fill:#ff0000;fill-opacity:1;stroke:none;font-family:Bitstream Vera Sans"
       x="2280"
       y="212.36218"
       id="text4175-5"
       sodipodi:linespacing="125%"><tspan
         sodipodi:role="line"
         id="tspan4177-8"
         x="2280"
         y="212.36218">box_boundary</tspan></text>
    <text
       xml:space="preserve"
       style="font-size:150px;font-style:normal;font-weight:normal;line-height:125%;letter-spacing:0px;word-spacing:0px;fill:#00ff00;fill-opacity:1;stroke:none;font-family:Bitstream Vera Sans"
       x="2280"
       y="412.36218"
       id="text4175-5-0"
       sodipodi:linespacing="125%"><tspan
         sodipodi:role="line"
         id="tspan4177-8-2"
         x="2280"
         y="412.36218">prolongation</tspan></text>
    <text
       xml:space="preserve"
       style="font-size:150px;font-style:normal;font-weight:normal;line-height:125%;letter-spacing:0px;word-spacing:0px;fill:#ff00ff;fill-opacity:1;stroke:none;font-family:Bitstream Vera Sans"
       x="2280"
       y="612.36218"
       id="text4175-5-0-3"
       sodipodi:linespacing="125%"><tspan
         sodipodi:role="line"
         id="tspan4177-8-2-0"
         x="2280"
         y="612.36218">restriction</tspan></text>
    <path
       sodipodi:type="arc"
       style="fill:#0000ff;fill-opacity:1;stroke:#0000ff;stroke-width:5;stroke-linejoin:miter;stroke-miterlimit:4;stroke-opacity:1;stroke-dasharray:none;stroke-dashoffset:0"
       id="path2989-6"
       sodipodi:cx="-40"
       sodipodi:cy="532.36218"
       sodipodi:rx="40"
       sodipodi:ry="40"
       d="m 0,532.36218 c 0,22.09139 -17.90861,40 -40,40 -22.09139,0 -40,-17.90861 -40,-40 0,-22.09139 17.90861,-40 40,-40 22.09139,0 40,17.90861 40,40 z"
       transform="translate(0,1440)" />
    <path
       transform="translate(320,1440)"
       sodipodi:type="arc"
       style="fill:#0000ff;fill-opacity:1;stroke:#0000ff;stroke-width:5;stroke-linejoin:miter;stroke-miterlimit:4;stroke-opacity:1;stroke-dasharray:none;stroke-dashoffset:0"
       id="path2989-7-2"
       sodipodi:cx="-40"
       sodipodi:cy="532.36218"
       sodipodi:rx="40"
       sodipodi:ry="40"
       d="m 0,532.36218 c 0,22.09139 -17.90861,40 -40,40 -22.09139,0 -40,-17.90861 -40,-40 0,-22.09139 17.90861,-40 40,-40 22.09139,0 40,17.90861 40,40 z"
       inkscape:transform-center-x="80" />
    <path
       style="fill:none;stroke:#000000;stroke-width:1px;stroke-linecap:butt;stroke-linejoin:miter;stroke-opacity:1"
       d="m -40,1972.3622 480,-960 320,640"
       id="path3161-1"
       inkscape:connector-curvature="0"
       sodipodi:nodetypes="ccc" />
    <path
       transform="translate(640,1440)"
       sodipodi:type="arc"
       style="fill:none;stroke:#0000ff;stroke-width:10;stroke-linejoin:miter;stroke-miterlimit:4;stroke-opacity:1;stroke-dasharray:none;stroke-dashoffset:0"
       id="path2989-7-9-8"
       sodipodi:cx="-40"
       sodipodi:cy="532.36218"
       sodipodi:rx="40"
       sodipodi:ry="40"
       d="m 0,532.36218 c 0,22.09139 -17.90861,40 -40,40 -22.09139,0 -40,-17.90861 -40,-40 0,-22.09139 17.90861,-40 40,-40 22.09139,0 40,17.90861 40,40 z"
       inkscape:transform-center-x="80" />
    <path
       style="fill:none;stroke:#000000;stroke-width:1px;stroke-linecap:butt;stroke-linejoin:miter;stroke-opacity:1"
       d="m 120,1652.3622 160,320"
       id="path3181-8"
       inkscape:connector-curvature="0" />
    <path
       transform="translate(160,1120)"
       sodipodi:type="arc"
       style="fill:#ff00ff;fill-opacity:1;stroke:#0000ff;stroke-width:10;stroke-linejoin:miter;stroke-miterlimit:4;stroke-opacity:1;stroke-dasharray:none;stroke-dashoffset:0"
       id="path2989-8-20"
       sodipodi:cx="-40"
       sodipodi:cy="532.36218"
       sodipodi:rx="40"
       sodipodi:ry="40"
       d="m 0,532.36218 c 0,22.09139 -17.90861,40 -40,40 -22.09139,0 -40,-17.90861 -40,-40 0,-22.09139 17.90861,-40 40,-40 22.09139,0 40,17.90861 40,40 z" />
    <path
       transform="translate(800,1120)"
       sodipodi:type="arc"
       style="fill:#0000ff;fill-opacity:1;stroke:#0000ff;stroke-width:10;stroke-linejoin:miter;stroke-miterlimit:4;stroke-opacity:1;stroke-dasharray:none;stroke-dashoffset:0"
       id="path2989-0-7"
       sodipodi:cx="-40"
       sodipodi:cy="532.36218"
       sodipodi:rx="40"
       sodipodi:ry="40"
       d="m 0,532.36218 c 0,22.09139 -17.90861,40 -40,40 -22.09139,0 -40,-17.90861 -40,-40 0,-22.09139 17.90861,-40 40,-40 22.09139,0 40,17.90861 40,40 z" />
    <path
       transform="translate(480,480)"
       sodipodi:type="arc"
       style="fill:#ff00ff;fill-opacity:1;stroke:#0000ff;stroke-width:10;stroke-linejoin:miter;stroke-miterlimit:4;stroke-opacity:1;stroke-dasharray:none;stroke-dashoffset:0"
       id="path2989-5-3"
       sodipodi:cx="-40"
       sodipodi:cy="532.36218"
       sodipodi:rx="40"
       sodipodi:ry="40"
       d="m 0,532.36218 c 0,22.09139 -17.90861,40 -40,40 -22.09139,0 -40,-17.90861 -40,-40 0,-22.09139 17.90861,-40 40,-40 22.09139,0 40,17.90861 40,40 z" />
    <path
       style="fill:none;stroke:#000000;stroke-width:1px;stroke-linecap:butt;stroke-linejoin:miter;stroke-opacity:1"
       d="m 600,1972.3622 160,-320"
       id="path3183-7"
       inkscape:connector-curvature="0" />
    <path
       style="fill:none;stroke:#000000;stroke-width:10;stroke-linecap:butt;stroke-linejoin:miter;stroke-miterlimit:4;stroke-opacity:1;stroke-dasharray:none"
       d="M -199.36603,2012.3622 -200,972.36218"
       id="path3185-7"
       inkscape:connector-curvature="0"
       sodipodi:nodetypes="cc" />
    <path
       style="fill:none;stroke:#000000;stroke-width:10;stroke-linecap:butt;stroke-linejoin:miter;stroke-miterlimit:4;stroke-opacity:1;stroke-dasharray:none"
       d="m 1080,2012.3622 0,-1040.00002"
       id="path3185-0-9"
       inkscape:connector-curvature="0"
       sodipodi:nodetypes="cc" />
    <path
       transform="translate(1440,1120)"
       sodipodi:type="arc"
       style="fill:none;stroke:#0000ff;stroke-width:10;stroke-linejoin:miter;stroke-miterlimit:4;stroke-opacity:1;stroke-dasharray:none;stroke-dashoffset:0"
       id="path2989-8-2-7"
       sodipodi:cx="-40"
       sodipodi:cy="532.36218"
       sodipodi:rx="40"
       sodipodi:ry="40"
       d="m 0,532.36218 c 0,22.09139 -17.90861,40 -40,40 -22.09139,0 -40,-17.90861 -40,-40 0,-22.09139 17.90861,-40 40,-40 22.09139,0 40,17.90861 40,40 z" />
    <path
       style="fill:none;stroke:#000000;stroke-width:1px;stroke-linecap:butt;stroke-linejoin:miter;stroke-opacity:1"
       d="m 1400,1652.3622 320,-640"
       id="path3161-6-1"
       inkscape:connector-curvature="0"
       sodipodi:nodetypes="cc" />
    <path
       transform="translate(1760,480)"
       sodipodi:type="arc"
       style="fill:#ff0000;stroke:#0000ff;stroke-width:10;stroke-linejoin:miter;stroke-miterlimit:4;stroke-opacity:1;stroke-dasharray:none;stroke-dashoffset:0"
       id="path2989-5-1-2"
       sodipodi:cx="-40"
       sodipodi:cy="532.36218"
       sodipodi:rx="40"
       sodipodi:ry="40"
       d="m 0,532.36218 c 0,22.09139 -17.90861,40 -40,40 -22.09139,0 -40,-17.90861 -40,-40 0,-22.09139 17.90861,-40 40,-40 22.09139,0 40,17.90861 40,40 z" />
    <path
       transform="translate(-320,1440)"
       sodipodi:type="arc"
       style="fill:none;stroke:#0000ff;stroke-width:10;stroke-linejoin:miter;stroke-miterlimit:4;stroke-opacity:1;stroke-dasharray:none;stroke-dashoffset:0"
       id="path2989-7-97-0-8"
       sodipodi:cx="-40"
       sodipodi:cy="532.36218"
       sodipodi:rx="40"
       sodipodi:ry="40"
       d="m 0,532.36218 c 0,22.09139 -17.90861,40 -40,40 -22.09139,0 -40,-17.90861 -40,-40 0,-22.09139 17.90861,-40 40,-40 22.09139,0 40,17.90861 40,40 z"
       inkscape:transform-center-x="80" />
    <path
       style="fill:none;stroke:#000000;stroke-width:1px;stroke-linecap:butt;stroke-linejoin:miter;stroke-opacity:1"
       d="m -840,1012.3622 480,960"
       id="path3161-8-8"
       inkscape:connector-curvature="0"
       sodipodi:nodetypes="cc" />
    <path
       transform="translate(-480,1120)"
       sodipodi:type="arc"
       style="fill:#ff0000;fill-opacity:1;stroke:#0000ff;stroke-width:10;stroke-linejoin:miter;stroke-miterlimit:4;stroke-opacity:1;stroke-dasharray:none;stroke-dashoffset:0"
       id="path2989-0-2-9"
       sodipodi:cx="-40"
       sodipodi:cy="532.36218"
       sodipodi:rx="40"
       sodipodi:ry="40"
       d="m 0,532.36218 c 0,22.09139 -17.90861,40 -40,40 -22.09139,0 -40,-17.90861 -40,-40 0,-22.09139 17.90861,-40 40,-40 22.09139,0 40,17.90861 40,40 z" />
    <path
       transform="translate(-800,480)"
       sodipodi:type="arc"
       style="fill:#ff0000;stroke:#0000ff;stroke-width:10;stroke-linejoin:miter;stroke-miterlimit:4;stroke-opacity:1;stroke-dasharray:none;stroke-dashoffset:0"
       id="path2989-5-19-8"
       sodipodi:cx="-40"
       sodipodi:cy="532.36218"
       sodipodi:rx="40"
       sodipodi:ry="40"
       d="m 0,532.36218 c 0,22.09139 -17.90861,40 -40,40 -22.09139,0 -40,-17.90861 -40,-40 0,-22.09139 17.90861,-40 40,-40 22.09139,0 40,17.90861 40,40 z" />
    <text
       xml:space="preserve"
       style="font-size:150px;font-style:normal;font-weight:normal;line-height:125%;letter-spacing:0px;word-spacing:0px;fill:#000000;fill-opacity:1;stroke:none;font-family:Bitstream Vera Sans"
       x="2080"
       y="1412.3622"
       id="text4175-9"
       sodipodi:linespacing="125%"><tspan
         sodipodi:role="line"
         id="tspan4177-9"
         x="2080"
         y="1412.3622">boundary_restriction</tspan></text>
    <text
       xml:space="preserve"
       style="font-size:200px;font-style:normal;font-weight:normal;line-height:125%;letter-spacing:0px;word-spacing:0px;fill:#000000;fill-opacity:1;stroke:none;font-family:Bitstream Vera Sans"
       x="-455.47946"
       y="304.41696"
       id="text6851"
       sodipodi:linespacing="125%"><tspan
         sodipodi:role="line"
         id="tspan6853"
         x="-455.47946"
         y="304.41696">?</tspan></text>
  </g>
</svg>
